<?xml version="1.0" encoding="UTF-8" standalone="no"?>
<svg xmlns="http://www.w3.org/2000/svg" viewBox="0 0 200 200" width="200" height="200">
  <!-- Flame icon similar to the original -->
  <path d="M100 20 C 120 40, 150 60, 150 110 C 150 150, 120 180, 100 180 C 80 180, 50 150, 50 110 C 50 60, 80 40, 100 20 Z" fill="#e63b19" />
  <path d="M100 40 C 115 55, 135 70, 135 110 C 135 140, 115 160, 100 160 C 85 160, 65 140, 65 110 C 65 70, 85 55, 100 40 Z" fill="#ff5733" />
  <path d="M100 60 C 110 70, 120 85, 120 110 C 120 130, 110 140, 100 140 C 90 140, 80 130, 80 110 C 80 85, 90 70, 100 60 Z" fill="#ffbd33" />
</svg>