<?xml version="1.0" encoding="UTF-8" standalone="no"?>
<svg width="800" height="600" xmlns="http://www.w3.org/2000/svg">
  <!-- Gradient background that resembles the original app -->
  <defs>
    <linearGradient id="backgroundGradient" x1="0%" y1="0%" x2="100%" y2="100%">
      <stop offset="0%" style="stop-color:#303030;stop-opacity:1" />
      <stop offset="100%" style="stop-color:#101010;stop-opacity:1" />
    </linearGradient>
  </defs>
  
  <!-- Background rectangle -->
  <rect width="100%" height="100%" fill="url(#backgroundGradient)" />
  
  <!-- Music note pattern for background -->
  <g opacity="0.05" fill="#FFFFFF">
    <!-- Music note 1 -->
    <path d="M100,100 Q120,80 140,100 L140,200 Q120,220 100,200 Z" />
    <circle cx="100" cy="210" r="15" />
    
    <!-- Music note 2 -->
    <path d="M300,150 Q320,130 340,150 L340,250 Q320,270 300,250 Z" />
    <circle cx="300" cy="260" r="15" />
    
    <!-- Music note 3 -->
    <path d="M500,200 Q520,180 540,200 L540,300 Q520,320 500,300 Z" />
    <circle cx="500" cy="310" r="15" />
    
    <!-- Music note 4 -->
    <path d="M200,300 Q220,280 240,300 L240,400 Q220,420 200,400 Z" />
    <circle cx="200" cy="410" r="15" />
    
    <!-- Music note 5 -->
    <path d="M400,350 Q420,330 440,350 L440,450 Q420,470 400,450 Z" />
    <circle cx="400" cy="460" r="15" />
    
    <!-- Music note 6 -->
    <path d="M600,250 Q620,230 640,250 L640,350 Q620,370 600,350 Z" />
    <circle cx="600" cy="360" r="15" />
    
    <!-- Music note 7 -->
    <path d="M700,400 Q720,380 740,400 L740,500 Q720,520 700,500 Z" />
    <circle cx="700" cy="510" r="15" />
  </g>
</svg>